{"title":"You Cant Kill Stephen King DVDRip XviD NOGRP","uid":8763337,"size":797124811,"categoryP":"video","categoryS":"movies","magnet":"?xt=urn:btih:34d61b13dd66764f60d8c5fe948439b1965e9156&amp;dn=You+Cant+Kill+Stephen+King+DVDRip+XviD+NOGRP&amp;tr=udp%3A%2F%2Ftracker.openbittorrent.com%3A80&amp;tr=udp%3A%2F%2Fopen.demonii.com%3A1337&amp;tr=udp%3A%2F%2Ftracker.coppersurfer.tk%3A6969&amp;tr=udp%3A%2F%2Fexodus.desync.com%3A6969","seeders":5,"leechers":2,"uploader":"xxxlavalxxx","files":-1,"time":1375286603,"description":" &lt;a href=&quot;http://www.imdb.com/title/tt1691452/&quot; rel=&quot;nofollow&quot; target=&quot;_NEW&quot;&gt;http://www.imdb.com/title/tt1691452/&lt;/a&gt;\n\n\nA group of friends visit a lake where horror author Stephen King lives, and start getting killed off one at a time. \n\n\n\nDirectors:\n Ronnie Khalil, Monroe Mann\n\nWriters:\n Monroe Mann, Ronnie Khalil\n\nStars:\n Monroe Mann, Ronnie Khalil, Crystal Arnette \n\nGenres:\n  Comedy |  Horror \n\nCountry:\n USA \n\nLanguage:\n English \n\n\n\n\nFormat                                   : AVI\nFormat/Info                              : Audio Video Interleave\nFile size                                : 760 MiB\nDuration                                 : 1h 19mn\nOverall bit rate                         : 1 337 Kbps\nWriting application                      : Magic0515\n\nVideo\nID                                       : 0\nFormat                                   : MPEG-4 Visual\nFormat profile                           : Advanced Simple@L4\nFormat settings, BVOP                    : No\nFormat settings, QPel                    : No\nFormat settings, GMC                     : No warppoints\nFormat settings, Matrix                  : Default (H.263)\nCodec ID                                 : XVID\nCodec ID/Hint                            : XviD\nDuration                                 : 1h 19mn\nBit rate                                 : 1 197 Kbps\nWidth                                    : 640 pixels\nHeight                                   : 360 pixels\nDisplay aspect ratio                     : 16:9\nFrame rate                               : 25.000 fps\nColor space                              : YUV\nChroma subsampling                       : 4:2:0\nBit depth                                : 8 bits\nScan type                                : Progressive\nCompression mode                         : Lossy\nBits/(Pixel*Frame)                       : 0.208\nStream size                              : 680 MiB (90%)\nWriting library                          : Magic0432\n\nAudio\nID                                       : 1\nFormat                                   : MPEG Audio\nFormat version                           : Version 1\nFormat profile                           : Layer 3\nMode                                     : Joint stereo\nMode extension                           : MS Stereo\nCodec ID                                 : 55\nCodec ID/Hint                            : MP3\nDuration                                 : 1h 19mn\nBit rate mode                            : Constant\nBit rate                                 : 128 Kbps\nChannel(s)                               : 2 channels\nSampling rate                            : 44.1 KHz\nCompression mode                         : Lossy\nStream size                              : 72.8 MiB (10%)\nAlignment                                : Aligned on interleaves\nInterleave, duration                     : 26 ms (0.65 video frame)\nWriting library                          : LAME3.97\n\n\n\nscreens\n\n\n    &lt;a href=&quot;\thttp://addpix.net/viewer.php?file=84546821158304893695.jpg&quot; rel=&quot;nofollow&quot; target=&quot;_NEW&quot;&gt;\thttp://addpix.net/viewer.php?file=84546821158304893695.jpg&lt;/a&gt;\n    &lt;a href=&quot;\thttp://addpix.net/viewer.php?file=58235451034432875507.jpg&quot; rel=&quot;nofollow&quot; target=&quot;_NEW&quot;&gt;\thttp://addpix.net/viewer.php?file=58235451034432875507.jpg&lt;/a&gt;\n    &lt;a href=&quot;\thttp://addpix.net/viewer.php?file=93778981660706526304.jpg&quot; rel=&quot;nofollow&quot; target=&quot;_NEW&quot;&gt;\thttp://addpix.net/viewer.php?file=93778981660706526304.jpg&lt;/a&gt;\n    &lt;a href=&quot;\thttp://addpix.net/viewer.php?file=40180363138812411821.jpg&quot; rel=&quot;nofollow&quot; target=&quot;_NEW&quot;&gt;\thttp://addpix.net/viewer.php?file=40180363138812411821.jpg&lt;/a&gt;\n    &lt;a href=&quot;\thttp://addpix.net/viewer.php?file=26704464114868904545.jpg&quot; rel=&quot;nofollow&quot; target=&quot;_NEW&quot;&gt;\thttp://addpix.net/viewer.php?file=26704464114868904545.jpg&lt;/a&gt;\n    &lt;a href=&quot;\thttp://addpix.net/viewer.php?file=78695936793478458521.jpg&quot; rel=&quot;nofollow&quot; target=&quot;_NEW&quot;&gt;\thttp://addpix.net/viewer.php?file=78695936793478458521.jpg&lt;/a&gt;","torrent":{"xt":"urn:btih:34d61b13dd66764f60d8c5fe948439b1965e9156","amp;dn":"You+Cant+Kill+Stephen+King+DVDRip+XviD+NOGRP","amp;tr":["udp%3A%2F%2Ftracker.openbittorrent.com%3A80","udp%3A%2F%2Fopen.demonii.com%3A1337","udp%3A%2F%2Ftracker.coppersurfer.tk%3A6969","udp%3A%2F%2Fexodus.desync.com%3A6969"],"infoHash":"34d61b13dd66764f60d8c5fe948439b1965e9156","infoHashBuffer":{"type":"Buffer","data":[52,214,27,19,221,102,118,79,96,216,197,254,148,132,57,177,150,94,145,86]},"announce":[],"urlList":[]}}